<svg xmlns="http://www.w3.org/2000/svg" width="300" height="37" viewBox="0 0 300 37"><path fill="#D45135" d="M20.886 26.706c0-3.33 1.55-9.125 1.028-13.123-.582-4.458-3.164-3.44-3.71-6.134-.445-2.186.68-3.095.68-4.11 0-.954-.68-3.216-.68-3.216h-3.995s-.68 2.262-.68 3.215c0 1.015 1.122 1.924.68 4.11-.548 2.69-3.13 1.674-3.712 6.133-.522 3.997 1.028 9.792 1.028 13.123 0 5.04-3.07 8.42-1.028 10.09h11.416c2.043-1.67-1.028-5.05-1.028-10.09zM247.92 7h-10.413s-1.18.84-1.178 1.596V37h12.874V8.346c0-.673-1.284-1.346-1.284-1.346z"/><path fill="#D45135" d="M247.92 7h-10.413s-1.18.84-1.178 1.596V37h12.874V8.346c0-.673-1.284-1.346-1.284-1.346zM174.204 37h-24s4-13.333 0-25h24c-5.333 11.667 0 25 0 25zM89.92 15H78.507s-1.18.84-1.178 1.596V37h13.874V16.346c0-.673-1.284-1.346-1.284-1.346z"/></svg>