<svg xmlns="http://www.w3.org/2000/svg" width="520" height="60" viewBox="-55.5 -22.99 520 60"><path fill="#D45135" d="M-14.166 20.256c0-5.418 2.52-14.842 1.672-21.345-.947-7.25-5.146-5.596-6.036-9.976-.722-3.554 1.106-5.033 1.106-6.685 0-1.55-1.106-5.23-1.106-5.23h-6.496s-1.106 3.68-1.106 5.23c0 1.652 1.827 3.13 1.106 6.684-.89 4.38-5.09 2.724-6.036 9.977-.85 6.502 1.672 15.928 1.672 21.346 0 8.196-4.995 13.694-1.672 16.41h18.57c3.32-2.716-1.674-8.214-1.674-16.41zM369.116-11.796H352.18s-1.92 1.365-1.917 2.596c.003 1.574 0 46.2 0 46.2h20.942V-9.607c0-1.095-2.09-2.19-2.09-2.19z"/><path fill="#D45135" d="M369.116-11.796H352.18s-1.92 1.365-1.917 2.596c.003 1.574 0 46.2 0 46.2h20.942V-9.607c0-1.095-2.09-2.19-2.09-2.19zM250.213 37h-39.037s6.506-21.687 0-40.664h39.037c-8.674 18.977 0 40.664 0 40.664zM110.12 1.216H91.558s-1.92 1.365-1.916 2.596c.004 1.574 0 33.188 0 33.188h22.57V3.405c0-1.094-2.09-2.19-2.09-2.19z"/></svg>